<svg width="19" height="21" viewBox="0 0 19 21" fill="none" xmlns="http://www.w3.org/2000/svg">
<path d="M15.8432 4.20933C14.712 3.4716 13.8954 2.29173 13.6408 0.916199C13.5858 0.618864 13.5556 0.313114 13.5556 0H9.9452L9.93923 14.4691C9.87857 16.0894 8.54512 17.3899 6.91013 17.3899C6.40207 17.3899 5.92346 17.263 5.50235 17.041C4.53636 16.5326 3.87542 15.52 3.87542 14.3548C3.87542 12.6813 5.23692 11.3198 6.91013 11.3198C7.22254 11.3198 7.52198 11.3713 7.80564 11.46V7.77419C7.51217 7.73422 7.21413 7.70933 6.91013 7.70933C3.24639 7.70968 0.26532 10.6907 0.26532 14.3548C0.26532 16.6031 1.38874 18.5926 3.10228 19.7956C4.18152 20.5533 5.49463 21 6.91048 21C10.5746 21 13.5556 18.0189 13.5556 14.3548V7.01788C14.9715 8.03436 16.7064 8.63324 18.5784 8.63324V5.02279C17.57 5.02279 16.6307 4.723 15.8432 4.20933Z" fill="white"/>
</svg>
