<svg width="48" height="42" viewBox="0 0 48 42" fill="none" xmlns="http://www.w3.org/2000/svg">
<path d="M45.973 0V6C44.0811 7.02703 42.6621 8.87837 41.7162 11.5541C40.7702 14.2297 40.2973 17.7567 40.2973 22.1351V24H48V42H30V28.5405C30 20.3783 31.3243 13.9189 33.973 9.16216C36.6216 4.40538 40.6216 1.35136 45.973 0ZM15.973 0V6C14.0811 7.02703 12.6621 8.87837 11.7162 11.5541C10.7702 14.2297 10.2973 17.7567 10.2973 22.1351V24H18V42H0L0 28.5405C0 20.3783 1.3243 13.9189 3.97296 9.16216C6.62162 4.40538 10.6216 1.35136 15.973 0Z" fill="#85CC3A"/>
</svg>
