<svg width="8" height="14" viewBox="0 0 8 14" fill="none" xmlns="http://www.w3.org/2000/svg">
<path d="M7.06836 6.30664L1.56836 0.806641C1.38216 0.634766 1.16732 0.548828 0.923828 0.548828C0.680339 0.548828 0.465495 0.634766 0.279297 0.806641C0.093099 0.992839 0 1.20768 0 1.45117C0 1.69466 0.093099 1.9095 0.279297 2.0957L5.13477 6.95117L0.279297 11.8066C0.093099 11.9928 0 12.2077 0 12.4512C0 12.6947 0.093099 12.9095 0.279297 13.0957C0.379557 13.196 0.476237 13.2676 0.569336 13.3105C0.662435 13.3535 0.780599 13.375 0.923828 13.375C1.06706 13.375 1.18522 13.3535 1.27832 13.3105C1.37142 13.2676 1.4681 13.196 1.56836 13.0957L7.06836 7.5957C7.25456 7.40951 7.34766 7.19466 7.34766 6.95117C7.34766 6.70768 7.25456 6.49284 7.06836 6.30664Z" fill="#6B7385"/>
</svg>
