<svg width="22" height="22" viewBox="0 0 22 22" fill="none" xmlns="http://www.w3.org/2000/svg">
<path d="M15.0317 0.21875H6.54144C5.68011 0.21875 4.86664 0.382812 4.10101 0.710938C3.34906 1.03906 2.68939 1.48682 2.12201 2.0542C1.55463 2.62158 1.10687 3.28125 0.778748 4.0332C0.450623 4.79883 0.28656 5.6123 0.28656 6.47363V14.9639C0.28656 15.8252 0.450623 16.6387 0.778748 17.4043C1.10687 18.1562 1.55463 18.8159 2.12201 19.3833C2.68939 19.9507 3.34906 20.3984 4.10101 20.7266C4.86664 21.0547 5.68011 21.2188 6.54144 21.2188H15.0317C15.893 21.2188 16.7065 21.0547 17.4721 20.7266C18.2241 20.3984 18.8837 19.9507 19.4511 19.3833C20.0185 18.8159 20.4662 18.1562 20.7944 17.4043C21.1225 16.6387 21.2866 15.8252 21.2866 14.9639V6.47363C21.2866 5.6123 21.1225 4.79883 20.7944 4.0332C20.4662 3.28125 20.0185 2.62158 19.4511 2.0542C18.8837 1.48682 18.2241 1.03906 17.4721 0.710938C16.7065 0.382812 15.893 0.21875 15.0317 0.21875ZM19.1743 14.9639C19.1743 15.5381 19.0649 16.0781 18.8461 16.584C18.6274 17.0762 18.33 17.5103 17.954 17.8862C17.5781 18.2622 17.144 18.5596 16.6518 18.7783C16.1459 18.9971 15.6059 19.1064 15.0317 19.1064H6.54144C5.96722 19.1064 5.42719 18.9971 4.92133 18.7783C4.42914 18.5596 3.99506 18.2622 3.61908 17.8862C3.2431 17.5103 2.94574 17.0762 2.72699 16.584C2.50824 16.0781 2.39886 15.5381 2.39886 14.9639V6.47363C2.39886 5.89941 2.50824 5.35938 2.72699 4.85352C2.94574 4.36133 3.2431 3.92725 3.61908 3.55127C3.99506 3.17529 4.42914 2.87793 4.92133 2.65918C5.42719 2.44043 5.96722 2.33105 6.54144 2.33105H15.0317C15.6059 2.33105 16.1459 2.44043 16.6518 2.65918C17.144 2.87793 17.5781 3.17529 17.954 3.55127C18.33 3.92725 18.6274 4.36133 18.8461 4.85352C19.0649 5.35938 19.1743 5.89941 19.1743 6.47363V14.9639ZM10.7866 5.28418C10.0346 5.28418 9.33051 5.42773 8.67426 5.71484C8.01801 6.00195 7.44379 6.3916 6.9516 6.88379C6.45941 7.37598 6.06976 7.9502 5.78265 8.60645C5.49554 9.2627 5.35199 9.9668 5.35199 10.7188C5.35199 11.4707 5.49554 12.1748 5.78265 12.8311C6.06976 13.4873 6.45941 14.0615 6.9516 14.5537C7.44379 15.0459 8.01801 15.4355 8.67426 15.7227C9.33051 16.0098 10.0346 16.1533 10.7866 16.1533C11.5385 16.1533 12.2426 16.0098 12.8989 15.7227C13.5551 15.4355 14.1293 15.0459 14.6215 14.5537C15.1137 14.0615 15.5034 13.4873 15.7905 12.8311C16.0776 12.1748 16.2211 11.4707 16.2211 10.7188C16.2211 9.9668 16.0776 9.2627 15.7905 8.60645C15.5034 7.9502 15.1137 7.37598 14.6215 6.88379C14.1293 6.3916 13.5551 6.00195 12.8989 5.71484C12.2426 5.42773 11.5385 5.28418 10.7866 5.28418ZM10.7866 14.041C9.87054 14.041 9.08783 13.7163 8.43842 13.0669C7.789 12.4175 7.46429 11.6348 7.46429 10.7188C7.46429 9.80273 7.789 9.02002 8.43842 8.37061C9.08783 7.72119 9.87054 7.39648 10.7866 7.39648C11.7026 7.39648 12.4853 7.72119 13.1347 8.37061C13.7841 9.02002 14.1088 9.80273 14.1088 10.7188C14.1088 11.6348 13.7841 12.4175 13.1347 13.0669C12.4853 13.7163 11.7026 14.041 10.7866 14.041ZM16.2211 6.6377C16.5903 6.6377 16.9013 6.50781 17.1542 6.24805C17.4072 5.98828 17.5336 5.68066 17.5336 5.3252C17.5336 4.96973 17.4072 4.66553 17.1542 4.4126C16.9013 4.15967 16.5903 4.0332 16.2211 4.0332C15.8657 4.0332 15.5615 4.15967 15.3085 4.4126C15.0556 4.66553 14.9291 4.96973 14.9291 5.3252C14.9291 5.68066 15.0556 5.98828 15.3085 6.24805C15.5615 6.50781 15.8657 6.6377 16.2211 6.6377Z" fill="white"/>
</svg>
