<svg width="22" height="16" viewBox="0 0 22 16" fill="none" xmlns="http://www.w3.org/2000/svg">
<path d="M20.7475 1.58691C20.3647 1.13574 19.7973 0.811035 19.0453 0.612793C18.2934 0.414551 17.2543 0.31543 15.9282 0.31543H6.20746C4.84027 0.31543 3.77728 0.421387 3.01849 0.633301C2.2597 0.845215 1.6889 1.19043 1.30609 1.66895C0.936951 2.14746 0.721619 2.73535 0.660095 3.43262C0.598572 4.12988 0.56781 4.9502 0.56781 5.89355V9.54395C0.56781 10.46 0.636169 11.2666 0.772888 11.9639C0.923279 12.6611 1.20013 13.2422 1.60345 13.707C2.00677 14.1719 2.57758 14.5205 3.31586 14.7529C4.05414 14.999 5.01801 15.1221 6.20746 15.1221H15.9282C17.0766 15.1221 17.996 15.0332 18.6865 14.8555C19.3769 14.6777 19.934 14.3906 20.3578 13.9941C20.7817 13.584 21.0893 13.0269 21.2807 12.3228C21.4721 11.6187 21.5678 10.6924 21.5678 9.54395V5.89355C21.5678 4.89551 21.5268 4.04102 21.4448 3.33008C21.3627 2.61914 21.1303 2.03809 20.7475 1.58691ZM14.0414 8.21094L9.65277 10.5283C9.59808 10.5557 9.5434 10.5762 9.48871 10.5898C9.43402 10.6035 9.3725 10.6104 9.30414 10.6104C9.24945 10.5967 9.19476 10.583 9.14008 10.5693C9.08539 10.5557 9.0307 10.5352 8.97601 10.5078C8.935 10.4805 8.89398 10.4429 8.85297 10.395C8.81195 10.3472 8.77777 10.3027 8.75043 10.2617C8.72308 10.207 8.69916 10.1523 8.67865 10.0977C8.65814 10.043 8.64789 9.98828 8.64789 9.93359V5.33984C8.64789 5.27148 8.65814 5.20996 8.67865 5.15527C8.69916 5.10059 8.72308 5.0459 8.75043 4.99121C8.77777 4.9502 8.81195 4.90918 8.85297 4.86816C8.89398 4.82715 8.935 4.78613 8.97601 4.74512C9.0307 4.71777 9.08539 4.69727 9.14008 4.68359C9.19476 4.66992 9.24945 4.66309 9.30414 4.66309C9.3725 4.64941 9.43402 4.64941 9.48871 4.66309C9.5434 4.67676 9.59808 4.69727 9.65277 4.72461L14.0414 7.02148C14.0961 7.04883 14.1474 7.08301 14.1953 7.12402C14.2431 7.16504 14.2807 7.21289 14.308 7.26758C14.3491 7.32227 14.3764 7.38037 14.3901 7.44189C14.4037 7.50342 14.4106 7.56152 14.4106 7.61621C14.4106 7.68457 14.4037 7.74609 14.3901 7.80078C14.3764 7.85547 14.3491 7.91016 14.308 7.96484C14.2807 8.01953 14.2431 8.06738 14.1953 8.1084C14.1474 8.14941 14.0961 8.19043 14.0414 8.23145V8.21094Z" fill="white"/>
</svg>
