<svg width="22" height="19" viewBox="0 0 22 19" fill="none" xmlns="http://www.w3.org/2000/svg">
<path d="M21.9272 2.91016C21.5444 3.08789 21.1445 3.23486 20.7275 3.35107C20.3105 3.46729 19.8832 3.55273 19.4457 3.60742C19.8969 3.33398 20.2866 2.98193 20.6147 2.55127C20.9428 2.12061 21.1889 1.64551 21.353 1.12598C20.9291 1.38574 20.4882 1.60791 20.0302 1.79248C19.5722 1.97705 19.0971 2.11719 18.6049 2.21289C18.2084 1.77539 17.7402 1.43018 17.2001 1.17725C16.6601 0.924316 16.0825 0.797852 15.4672 0.797852C14.8657 0.797852 14.3051 0.914062 13.7856 1.14648C13.2661 1.37891 12.8115 1.7002 12.4218 2.11035C12.0322 2.52051 11.7211 2.99902 11.4887 3.5459C11.27 4.09277 11.1606 4.67383 11.1606 5.28906C11.1606 5.4668 11.1708 5.64111 11.1913 5.81201C11.2119 5.98291 11.2358 6.15723 11.2631 6.33496C10.3745 6.28027 9.51312 6.12988 8.67914 5.88379C7.83148 5.65137 7.03168 5.33008 6.27972 4.91992C5.52777 4.50977 4.82367 4.02441 4.16742 3.46387C3.51117 2.91699 2.91644 2.30176 2.38324 1.61816C2.20551 1.94629 2.06537 2.30176 1.96283 2.68457C1.86029 3.06738 1.80902 3.46387 1.80902 3.87402C1.80902 4.66699 1.98334 5.3916 2.33197 6.04785C2.6806 6.7041 3.14203 7.23047 3.71625 7.62695C3.37445 7.61328 3.03607 7.55859 2.70111 7.46289C2.36615 7.36719 2.05511 7.2373 1.76801 7.07324V7.11426C1.76801 8.20801 2.09955 9.16846 2.76263 9.99561C3.42572 10.8228 4.24945 11.3389 5.23383 11.5439C5.04242 11.5986 4.85443 11.6396 4.66986 11.667C4.48529 11.6943 4.29047 11.708 4.08539 11.708C3.94867 11.708 3.81195 11.7012 3.67523 11.6875C3.53851 11.6738 3.40863 11.6533 3.28558 11.626C3.55902 12.5146 4.06146 13.2529 4.79291 13.8408C5.52435 14.4287 6.36176 14.7363 7.30511 14.7637C6.56683 15.3652 5.7431 15.8369 4.83392 16.1787C3.92474 16.5205 2.96429 16.6914 1.95258 16.6914C1.77484 16.6914 1.60052 16.6846 1.42963 16.6709C1.25873 16.6572 1.09125 16.6436 0.927185 16.6299C1.4057 16.9443 1.90472 17.2246 2.42426 17.4707C2.94379 17.7305 3.48041 17.9458 4.03412 18.1167C4.58783 18.2876 5.15863 18.4209 5.74652 18.5166C6.33441 18.5986 6.92914 18.6396 7.5307 18.6396C9.51312 18.6396 11.2631 18.2568 12.7807 17.4912C14.312 16.7119 15.5971 15.7036 16.6362 14.4663C17.6752 13.229 18.4614 11.8516 18.9946 10.334C19.5278 8.81641 19.7944 7.3125 19.7944 5.82227L19.7739 5.22754C20.1977 4.91309 20.5908 4.56104 20.9531 4.17139C21.3154 3.78174 21.6401 3.36133 21.9272 2.91016Z" fill="white"/>
</svg>
