<svg width="10" height="14" viewBox="0 0 10 14" fill="none" xmlns="http://www.w3.org/2000/svg">
<path d="M4.55864 7.26852C3.39346 7.26852 2.44544 6.32076 2.44544 5.15532C2.44544 3.99014 3.39346 3.04212 4.55864 3.04212C5.72408 3.04212 6.67184 3.99014 6.67184 5.15532C6.67184 6.32076 5.72408 7.26852 4.55864 7.26852ZM4.55864 3.85304C3.84022 3.85304 3.25636 4.43766 3.25636 5.15532C3.25636 5.87298 3.84022 6.4576 4.55864 6.4576C5.27706 6.4576 5.86092 5.87374 5.86092 5.15532C5.86092 4.4369 5.2763 3.85304 4.55864 3.85304ZM4.26342 13.3643C4.26342 13.3643 0.439947 9.27072 0.0517207 5.72068C0.0281534 5.53493 0.0126953 5.34766 0.0126953 5.15532C0.0126953 2.64477 2.04809 0.609374 4.55864 0.609374C7.06919 0.609374 9.10459 2.64477 9.10459 5.15532C9.10459 5.34437 9.08938 5.53012 9.06658 5.71333C8.68798 9.26514 4.91874 13.3643 4.91874 13.3643C4.85057 13.4396 4.78494 13.4882 4.72158 13.5225C4.72082 13.5232 4.7193 13.5232 4.71854 13.524C4.6747 13.5468 4.63162 13.5638 4.59108 13.5638C4.55053 13.5638 4.50771 13.5468 4.46387 13.524C4.4631 13.5232 4.46133 13.5232 4.46057 13.5225C4.39722 13.4882 4.33158 13.4396 4.26342 13.3643ZM4.55864 1.42029C2.49891 1.42029 0.823612 3.09559 0.823612 5.15532C0.823612 5.29394 0.834255 5.44168 0.856048 5.62084C1.15609 8.35514 3.74772 11.5405 4.59184 12.5136C5.41492 11.542 7.97032 8.34881 8.26047 5.62742C8.28404 5.43838 8.29367 5.29242 8.29367 5.15532C8.29367 3.09559 6.61837 1.42029 4.55864 1.42029Z" fill="#85CC3A"/>
</svg>
